<svg width="580" height="400" xmlns="http://www.w3.org/2000/svg">
 <!-- Created with Method Draw - http://github.com/duopixel/Method-Draw/ -->
 <g>
  <title>background</title>
  <rect fill="#fff" id="canvas_background" height="402" width="582" y="-1" x="-1"/>
  <g display="none" overflow="visible" y="0" x="0" height="100%" width="100%" id="canvasGrid">
   <rect fill="url(#gridpattern)" stroke-width="0" y="0" x="0" height="100%" width="100%"/>
  </g>
 </g>
 <g>
  <title>Layer 1</title>
  <path stroke="#000" id="svg_1" d="m358.589941,190.274299c-7.552246,-10.430642 -16.791879,-18.875337 -26.059889,-24.782728c-10.814312,6.05511 -23.985558,9.742223 -38.344779,9.742223c-14.387413,0 -27.577607,-3.694299 -38.372852,-9.742223c-9.267989,5.907391 -18.517062,14.352085 -26.087844,24.782728c-17.574427,24.216962 -19.507185,49.057386 -4.327804,55.498178c6.797967,2.901371 13.925537,0.738856 21.289124,-4.685597c-1.291674,5.500055 -2.045986,11.461401 -2.045986,17.696802c0,27.702294 14.076508,50.142307 31.424273,50.142307c10.456082,0 15.632153,-8.170913 18.121089,-20.6812c2.479756,12.510288 7.655784,20.6812 18.073971,20.6812c17.376273,0 31.452911,-22.440012 31.452911,-50.142307c0,-6.23541 -0.754562,-12.196747 -2.074309,-17.696802c7.382274,5.424453 14.500468,7.586968 21.317306,4.685597c15.170038,-6.440791 13.20874,-31.281224 -4.365199,-55.498178l-0.000011,0zm-64.423224,-24.490809c29.18966,0 52.863998,-18.100455 52.863998,-40.428725s-23.674338,-40.428774 -52.863998,-40.428774c-29.199589,0 -52.892625,18.104056 -52.892625,40.428774s23.693036,40.428725 52.892625,40.428725z" stroke-width="1.5" fill="#7DD8B5"/>
 </g>
</svg>